<svg width="16" height="16" viewBox="0 0 16 16" fill="none" xmlns="http://www.w3.org/2000/svg">
<path fill-rule="evenodd" clip-rule="evenodd" d="M6.58815 2.3408C8.53947 0.389473 11.7082 0.394495 13.6569 2.34314C15.6095 4.29577 15.6074 7.46371 13.6592 9.41187L9.41189 13.6592C7.46056 15.6105 4.29181 15.6055 2.34316 13.6569C0.390542 11.7042 0.392665 8.53628 2.34082 6.58813L6.58815 2.3408ZM8.00203 3.75534L3.75536 8.00201C2.58473 9.17265 2.5858 11.0711 3.75738 12.2426C4.92657 13.4118 6.82754 13.4151 7.998 12.2447L12.2447 7.99798C13.4153 6.82735 13.4142 4.92893 12.2427 3.75736C11.0735 2.58817 9.17249 2.58488 8.00203 3.75534ZM5.8787 3.05025L3.05027 5.87868L4.46448 7.29289L7.29291 4.46446L5.8787 3.05025ZM11.5356 8.7071L8.70712 11.5355L10.1213 12.9497L12.9498 10.1213L11.5356 8.7071ZM8.71365 5.87216C9.10057 5.48523 9.72809 5.48543 10.1213 5.87868C10.5119 6.2692 10.5096 6.90467 10.1279 7.28637L7.28639 10.1278C6.89947 10.5148 6.27194 10.5146 5.8787 10.1213C5.48817 9.73079 5.49048 9.09532 5.87218 8.71363L8.71365 5.87216Z" fill="#3E4056"/>
<mask id="mask0_0_372" style="mask-type:luminance" maskUnits="userSpaceOnUse" x="0" y="0" width="16" height="16">
<path fill-rule="evenodd" clip-rule="evenodd" d="M6.58815 2.3408C8.53947 0.389473 11.7082 0.394495 13.6569 2.34314C15.6095 4.29577 15.6074 7.46371 13.6592 9.41187L9.41189 13.6592C7.46056 15.6105 4.29181 15.6055 2.34316 13.6569C0.390542 11.7042 0.392665 8.53628 2.34082 6.58813L6.58815 2.3408ZM8.00203 3.75534L3.75536 8.00201C2.58473 9.17265 2.5858 11.0711 3.75738 12.2426C4.92657 13.4118 6.82754 13.4151 7.998 12.2447L12.2447 7.99798C13.4153 6.82735 13.4142 4.92893 12.2427 3.75736C11.0735 2.58817 9.17249 2.58488 8.00203 3.75534ZM5.8787 3.05025L3.05027 5.87868L4.46448 7.29289L7.29291 4.46446L5.8787 3.05025ZM11.5356 8.7071L8.70712 11.5355L10.1213 12.9497L12.9498 10.1213L11.5356 8.7071ZM8.71365 5.87216C9.10057 5.48523 9.72809 5.48543 10.1213 5.87868C10.5119 6.2692 10.5096 6.90467 10.1279 7.28637L7.28639 10.1278C6.89947 10.5148 6.27194 10.5146 5.8787 10.1213C5.48817 9.73079 5.49048 9.09532 5.87218 8.71363L8.71365 5.87216Z" fill="white"/>
</mask>
<g mask="url(#mask0_0_372)">
<rect width="16" height="16" fill="#C5ADEF"/>
</g>
<path fill-rule="evenodd" clip-rule="evenodd" d="M3.05028 5.87868C3.44081 5.48816 4.07125 5.48543 4.4645 5.87868C4.85502 6.26921 4.85774 6.89965 4.4645 7.29289C4.07397 7.68342 3.44353 7.68614 3.05028 7.29289C2.65976 6.90237 2.65703 6.27193 3.05028 5.87868ZM8.70714 11.5355C9.09766 11.145 9.7281 11.1423 10.1213 11.5355C10.5119 11.9261 10.5146 12.5565 10.1213 12.9497C9.73083 13.3403 9.10038 13.343 8.70714 12.9497C8.31661 12.5592 8.31389 11.9288 8.70714 11.5355ZM11.5356 8.70711C11.9261 8.31658 12.5565 8.31386 12.9498 8.70711C13.3403 9.09763 13.343 9.72807 12.9498 10.1213C12.5593 10.5118 11.9288 10.5146 11.5356 10.1213C11.145 9.7308 11.1423 9.10036 11.5356 8.70711ZM5.87871 3.05025C6.26923 2.65973 6.89968 2.65701 7.29292 3.05025C7.68345 3.44078 7.68617 4.07122 7.29292 4.46447C6.9024 4.85499 6.27196 4.85771 5.87871 4.46447C5.48818 4.07394 5.48546 3.4435 5.87871 3.05025Z" fill="#3E4056"/>
<mask id="mask1_0_372" style="mask-type:luminance" maskUnits="userSpaceOnUse" x="2" y="2" width="12" height="12">
<path fill-rule="evenodd" clip-rule="evenodd" d="M3.05028 5.87868C3.44081 5.48816 4.07125 5.48543 4.4645 5.87868C4.85502 6.26921 4.85774 6.89965 4.4645 7.29289C4.07397 7.68342 3.44353 7.68614 3.05028 7.29289C2.65976 6.90237 2.65703 6.27193 3.05028 5.87868ZM8.70714 11.5355C9.09766 11.145 9.7281 11.1423 10.1213 11.5355C10.5119 11.9261 10.5146 12.5565 10.1213 12.9497C9.73083 13.3403 9.10038 13.343 8.70714 12.9497C8.31661 12.5592 8.31389 11.9288 8.70714 11.5355ZM11.5356 8.70711C11.9261 8.31658 12.5565 8.31386 12.9498 8.70711C13.3403 9.09763 13.343 9.72807 12.9498 10.1213C12.5593 10.5118 11.9288 10.5146 11.5356 10.1213C11.145 9.7308 11.1423 9.10036 11.5356 8.70711ZM5.87871 3.05025C6.26923 2.65973 6.89968 2.65701 7.29292 3.05025C7.68345 3.44078 7.68617 4.07122 7.29292 4.46447C6.9024 4.85499 6.27196 4.85771 5.87871 4.46447C5.48818 4.07394 5.48546 3.4435 5.87871 3.05025Z" fill="white"/>
</mask>
<g mask="url(#mask1_0_372)">
<rect width="16" height="16" fill="#C5ADEF"/>
</g>
</svg>
