<svg width="24" height="24" viewBox="0 0 24 24" fill="none" xmlns="http://www.w3.org/2000/svg">
<rect opacity="0.01" x="2" y="2" width="20" height="20" fill="#C3CADF"/>
<rect x="4" y="7" width="16" height="2" rx="1" fill="#3E4056"/>
<path fill-rule="evenodd" clip-rule="evenodd" d="M11 4C9.89543 4 9 4.89543 9 6V7H11C11 6.44772 11.4477 6 12 6C12.5523 6 13 6.44772 13 7H15V6C15 4.89543 14.1046 4 13 4H11Z" fill="#3E4056"/>
<path fill-rule="evenodd" clip-rule="evenodd" d="M8 9H6V18C6 19.1046 6.89543 20 8 20H16C17.1046 20 18 19.1046 18 18V9H16V17C16 17.5523 15.5523 18 15 18H9C8.44772 18 8 17.5523 8 17V9Z" fill="#3E4056"/>
<rect x="9.5" y="11" width="2" height="5" rx="1" fill="#3E4056"/>
<rect x="12.5" y="11" width="2" height="5" rx="1" fill="#3E4056"/>
</svg>
